<?xml version="1.0" standalone="no"?>
<!DOCTYPE svg PUBLIC "-//W3C//DTD SVG 20010904//EN"
 "http://www.w3.org/TR/2001/REC-SVG-20010904/DTD/svg10.dtd">
<svg version="1.0" xmlns="http://www.w3.org/2000/svg"
 width="75.000000pt" height="75.000000pt" viewBox="0 0 75.000000 75.000000"
 preserveAspectRatio="xMidYMid meet">

<g transform="translate(0.000000,75.000000) scale(0.100000,-0.100000)"
fill="#000000" stroke="none">
<path d="M77 613 c-4 -3 -7 -93 -7 -198 0 -191 0 -192 -25 -215 -31 -29 -32
-56 -2 -64 29 -8 635 -8 665 0 29 8 28 35 -3 64 -24 23 -25 25 -27 219 l-3
196 -296 3 c-162 1 -298 -1 -302 -5z m583 -188 l0 -155 -285 0 -285 0 0 155 0
155 285 0 285 0 0 -155z"/>
</g>
</svg>
